PathFileType   4   (X/Y/Z)
DataRate	CameraRate	NumFrames	NumMarkers	Units	OrigDataRate	OrigDataStartFrame	OrigNumFrames
120.0	120.0	9	37	mm	120.0	31	122
Frame#	Time	midhip	hip_r	hip_l	knee_r	knee_l	ankle_r	ankle_l	midasis	asis_r	asis_l	psis_r	psis_l	epicondLat_r	epicondLat_l	epicondMed_r	epicondMed_l	malleolusLat_r	malleolusLat_l	malleolusMedv_r	malleolusMedv_l	neck	subclavicle_r	subclavicle_l	sternalnotch	xyphoidprocess	thighwand_r	thighwand_l	upperleg1_r	upperleg1_l	upperleg2_r	upperleg2_l	shankwand_r	shankwand_l	lowerleg1_r	lowerleg1_l	toe_r	toe_l
 	 	X1	Y1	Z1	X2	Y2	Z2	X3	Y3	Z3	X4	Y4	Z4	X5	Y5	Z5	X6	Y6	Z6	X7	Y7	Z7	X8	Y8	Z8	X9	Y9	Z9	X10	Y10	Z10	X11	Y11	Z11	X12	Y12	Z12	X13	Y13	Z13	X14	Y14	Z14	X15	Y15	Z15	X16	Y16	Z16	X17	Y17	Z17	X18	Y18	Z18	X19	Y19	Z19	X20	Y20	Z20	X21	Y21	Z21	X22	Y22	Z22	X23	Y23	Z23	X24	Y24	Z24	X25	Y25	Z25	X26	Y26	Z26	X27	Y27	Z27	X28	Y28	Z28	X29	Y29	Z29	X30	Y30	Z30	X31	Y31	Z31	X32	Y32	Z32	X33	Y33	Z33	X34	Y34	Z34	X35	Y35	Z35	X36	Y36	Z36	X37	Y37	Z37

	31	0.35833	1361.282	687.190	-203.723	1356.450	693.746	-140.312	1350.061	694.703	-265.975	1517.557	406.508	-144.255	1327.587	382.859	-231.069	1431.084	100.939	-137.049	1264.557	62.041	-223.967	1418.838	757.787	-205.993	1423.595	757.075	-112.435	1414.082	758.500	-299.551	1275.588	794.863	-173.761	1269.454	793.257	-228.425	1519.292	406.788	-93.786	1321.985	377.731	-280.489	1526.290	401.837	-191.009	1332.523	384.726	-181.845	1426.618	102.984	-103.911	1257.955	62.588	-257.825	1432.994	108.160	-163.193	1257.626	71.409	-195.532	1308.242	1144.405	-212.964	1393.255	1099.676	-152.033	1386.618	1098.674	-280.536	1383.986	1087.116	-218.403	1406.433	945.311	-217.764	1481.016	482.145	-12.682	1464.108	476.575	-289.119	1483.755	554.523	-78.608	1404.178	541.111	-232.517	1531.516	486.721	-93.696	1386.202	456.320	-217.910	1442.765	202.393	-31.754	1363.652	142.898	-266.770	1470.253	251.990	-91.426	1316.520	211.295	-247.327	1516.557	64.125	-129.137	1353.524	36.333	-223.208
	32	0.36667	1369.941	686.398	-203.542	1365.150	693.032	-140.176	1358.353	693.957	-265.818	1528.281	406.660	-145.583	1329.901	382.870	-230.878	1458.756	95.619	-137.761	1264.843	62.505	-223.364	1427.319	757.063	-206.077	1432.380	756.374	-112.522	1422.257	757.751	-299.631	1284.353	794.051	-173.139	1277.880	792.545	-227.868	1529.765	406.553	-95.105	1323.819	377.880	-280.255	1535.806	401.682	-192.461	1331.193	386.370	-181.063	1454.161	97.479	-104.629	1258.090	63.083	-257.192	1460.448	102.727	-163.940	1258.011	71.802	-194.854	1317.152	1143.737	-212.852	1401.824	1098.807	-151.606	1395.621	1097.692	-280.229	1392.850	1086.235	-218.127	1414.754	944.334	-217.183	1490.580	481.042	-13.690	1467.831	474.182	-289.966	1492.590	553.571	-79.214	1409.784	539.674	-232.599	1540.775	486.125	-94.770	1387.818	454.866	-217.439	1464.682	197.843	-32.592	1364.138	142.842	-266.577	1489.235	248.655	-92.320	1317.260	211.468	-246.955	1546.331	64.087	-130.093	1353.560	36.371	-223.170
	33	0.37500	1378.627	685.426	-203.380	1373.893	692.123	-140.049	1366.658	693.049	-265.666	1538.606	406.386	-146.862	1332.437	382.811	-230.741	1486.504	90.822	-138.592	1265.108	62.986	-222.819	1435.848	756.138	-206.166	1441.236	755.448	-112.618	1430.460	756.827	-299.714	1293.190	793.090	-172.498	1286.376	791.681	-227.280	1539.810	405.877	-96.379	1325.872	377.982	-280.072	1544.500	400.713	-193.640	1333.584	386.422	-181.209	1481.735	92.477	-105.475	1258.247	63.593	-256.624	1487.907	97.793	-164.728	1258.286	72.258	-194.276	1326.060	1142.856	-212.715	1409.509	1096.996	-151.090	1404.648	1096.562	-279.932	1401.632	1085.117	-217.830	1421.801	942.739	-217.373	1499.779	479.549	-14.601	1471.650	471.813	-290.870	1501.127	552.246	-79.933	1415.339	538.118	-232.836	1549.534	484.960	-95.807	1391.494	453.645	-217.757	1486.419	193.450	-33.518	1364.713	142.709	-266.336	1507.950	245.349	-93.224	1318.166	211.547	-246.578	1575.862	64.587	-131.195	1353.552	36.412	-223.164
	34	0.38333	1387.324	684.284	-203.240	1382.690	691.023	-139.934	1374.993	691.987	-265.524	1548.556	405.697	-148.082	1335.200	382.684	-230.659	1514.234	86.634	-139.536	1265.355	63.488	-222.335	1444.435	755.023	-206.261	1450.168	754.304	-112.721	1438.702	755.741	-299.802	1302.082	791.982	-171.849	1294.943	790.664	-226.663	1549.459	404.780	-97.598	1328.161	378.034	-279.942	1552.227	399.040	-194.661	1336.366	386.115	-181.442	1509.238	88.058	-106.441	1258.430	64.122	-256.126	1515.440	93.539	-165.706	1258.497	72.708	-193.795	1334.964	1141.782	-212.559	1417.846	1095.415	-150.726	1413.730	1095.285	-279.625	1410.431	1083.817	-217.510	1429.836	941.250	-217.293	1508.649	477.702	-15.397	1475.587	469.474	-291.804	1509.562	550.543	-80.624	1420.854	536.407	-233.142	1557.839	483.195	-96.794	1395.346	452.178	-218.143	1507.886	189.274	-34.532	1365.380	142.503	-266.053	1526.409	242.167	-94.158	1319.371	211.557	-246.223	1605.040	65.656	-132.413	1353.514	36.461	-223.180
	35	0.39167	1396.033	682.983	-203.124	1391.551	689.735	-139.834	1383.374	690.779	-265.392	1558.167	404.615	-149.236	1338.184	382.496	-230.626	1541.838	83.129	-140.579	1265.593	64.016	-221.910	1453.087	753.731	-206.359	1459.178	752.953	-112.824	1446.995	754.509	-299.893	1311.013	790.725	-171.195	1303.579	789.498	-226.018	1558.751	403.291	-98.757	1330.691	378.042	-279.860	1559.288	396.860	-195.576	1339.573	385.494	-181.740	1536.553	84.288	-107.519	1258.636	64.677	-255.695	1542.894	90.046	-166.823	1258.737	73.092	-193.407	1343.934	1140.500	-212.346	1426.607	1094.018	-150.406	1422.782	1093.753	-279.302	1419.200	1082.315	-217.191	1438.437	939.756	-216.770	1517.231	475.538	-16.071	1479.666	467.168	-292.738	1518.034	548.347	-81.105	1426.439	534.577	-233.382	1565.814	480.907	-97.612	1399.446	450.541	-218.543	1528.997	185.369	-35.633	1366.138	142.235	-265.745	1544.670	239.109	-95.234	1320.855	211.534	-245.927	1633.750	67.317	-133.703	1353.467	36.516	-223.201
	36	0.40000	1404.759	681.535	-203.034	1400.486	688.267	-139.748	1391.819	689.436	-265.273	1567.479	403.173	-150.321	1341.376	382.262	-230.634	1569.192	80.367	-141.707	1265.829	64.581	-221.537	1461.812	752.277	-206.453	1468.270	751.405	-112.921	1455.354	753.148	-299.985	1319.974	789.322	-170.541	1312.286	788.188	-225.349	1567.735	401.451	-99.851	1333.459	378.015	-279.821	1566.042	394.216	-196.285	1343.046	384.764	-182.073	1563.555	81.218	-108.695	1258.866	65.270	-255.320	1570.079	87.283	-168.012	1258.997	73.486	-193.115	1352.932	1139.042	-212.144	1435.430	1092.452	-150.082	1431.734	1092.001	-278.924	1428.033	1080.678	-216.869	1446.951	938.061	-216.172	1525.569	473.097	-16.626	1483.908	464.896	-293.639	1526.518	545.843	-81.535	1432.023	532.736	-233.581	1573.602	478.223	-98.275	1403.710	448.933	-218.941	1549.670	181.776	-36.819	1366.979	141.924	-265.433	1562.707	236.203	-96.500	1322.429	211.477	-245.685	1661.873	69.578	-135.020	1353.434	36.577	-223.204
	37	0.40833	1413.521	679.949	-202.969	1409.501	686.627	-139.676	1400.344	687.971	-265.164	1576.544	401.419	-151.336	1344.754	382.001	-230.673	1596.155	78.380	-142.901	1266.076	65.196	-221.207	1470.617	750.677	-206.536	1477.443	749.675	-113.000	1463.791	751.679	-300.071	1328.964	787.774	-169.882	1321.065	786.740	-224.656	1576.465	399.310	-100.880	1336.454	377.970	-279.814	1573.891	391.380	-196.700	1346.887	384.080	-182.446	1590.112	78.874	-109.954	1259.119	65.914	-254.990	1596.873	85.360	-169.293	1259.239	74.003	-192.869	1361.942	1137.457	-211.950	1444.386	1090.773	-149.785	1440.742	1090.163	-278.602	1436.947	1078.928	-216.533	1455.666	936.277	-215.659	1533.717	470.418	-17.080	1488.328	462.653	-294.478	1534.781	543.168	-81.975	1437.754	530.955	-233.857	1581.699	475.351	-98.706	1408.276	447.485	-219.396	1569.834	178.528	-38.081	1367.893	141.588	-265.137	1580.208	233.572	-97.744	1323.981	211.403	-245.542	1689.287	72.431	-136.311	1353.432	36.639	-223.165
	38	0.41667	1422.340	678.235	-202.925	1418.602	684.829	-139.614	1408.964	686.398	-265.063	1585.416	399.408	-152.286	1348.301	381.736	-230.730	1622.575	77.174	-144.141	1266.345	65.872	-220.908	1479.509	748.949	-206.596	1486.696	747.780	-113.048	1472.322	750.119	-300.144	1337.991	786.085	-169.215	1329.924	785.167	-223.943	1585.001	396.926	-101.849	1339.665	377.922	-279.830	1583.069	388.686	-197.058	1351.084	383.546	-182.845	1616.086	77.256	-111.275	1259.396	66.625	-254.693	1623.155	84.371	-170.622	1259.463	74.662	-192.626	1370.989	1135.721	-211.732	1453.295	1088.938	-149.445	1449.835	1088.271	-278.326	1445.905	1077.048	-216.179	1464.447	934.394	-215.258	1541.736	467.542	-17.464	1492.937	460.432	-295.230	1542.802	540.233	-82.239	1443.765	529.255	-234.187	1590.189	472.428	-98.919	1413.195	446.244	-219.896	1589.432	175.640	-39.411	1368.876	141.247	-264.875	1597.098	231.265	-98.905	1325.619	211.419	-245.593	1715.875	75.843	-137.533	1353.474	36.696	-223.068
	39	0.42500	1431.243	676.404	-202.895	1427.788	682.891	-139.556	1417.693	684.732	-264.965	1594.151	397.207	-153.177	1352.002	381.485	-230.792	1648.291	76.718	-145.405	1266.649	66.623	-220.633	1488.493	747.112	-206.624	1496.025	745.738	-113.054	1480.961	748.486	-300.194	1347.073	784.263	-168.535	1338.873	783.484	-223.212	1593.405	394.368	-102.763	1343.080	377.888	-279.858	1591.669	385.928	-197.626	1355.473	383.272	-183.095	1641.333	76.337	-112.638	1259.704	67.416	-254.417	1648.727	84.244	-171.957	1259.783	75.368	-192.366	1380.133	1133.855	-211.490	1462.183	1086.934	-149.052	1458.915	1086.265	-277.981	1454.906	1075.040	-215.810	1473.099	932.362	-214.859	1549.693	464.511	-17.813	1497.740	458.226	-295.877	1550.708	536.974	-82.350	1450.096	527.672	-234.518	1598.391	469.349	-99.209	1418.347	445.138	-220.305	1608.421	173.120	-40.791	1369.927	140.920	-264.654	1613.579	229.260	-100.057	1327.371	211.518	-245.663	1741.520	79.755	-138.647	1353.565	36.744	-222.904
